<svg xmlns="http://www.w3.org/2000/svg" viewBox="0 0 646.82 325.84"><defs><style>.cls-1{fill:#59ce8f;}.cls-2{fill:#e8f9fd;}</style></defs><g id="Layer_2" data-name="Layer 2"><g id="Layer_1-2" data-name="Layer 1"><path class="cls-1" d="M379.75,174.44c-19.67-22.06-45.15-29.16-73.7-26.34-27.83,2.76-49.48,16-63.33,40.65-10.78,19.19-14.06,40-11.09,61.72,5,36.88,28.93,67.63,68.71,73.85,27.73,4.34,53.3-.73,74.3-20.43,19.32-18.13,27-41.43,27.46-66.49C401.81,213.18,395.41,192,379.75,174.44Zm-36.93,113.1c-30.77,18.52-69.17,1-76.81-35-4.31-20.28-1.58-39.59,11.86-56,12.92-15.83,30.4-20.3,49.82-16.47,19.82,3.91,31.8,17.06,37.68,35.83,2.13,6.79,2.78,14,3.59,18.37C367.93,258,361.6,276.23,342.82,287.54Z"/><path class="cls-1" d="M455.1,252.68v61c0,7.44,0,7.44-8,7.44-7.05,0-14.09-.09-21.14,0-3.08.05-4.68-.79-4.67-4q.1-46.89.1-93.78a8.86,8.86,0,0,1,.53-1.82h5.33c17.61,0,35.22,0,52.83,0a64.13,64.13,0,0,0,11-.95c10-1.8,15.65-7.61,16.29-16.25.77-10.26-3.67-17-13.89-20a49.92,49.92,0,0,0-13.33-1.9c-17.61-.21-35.22-.09-52.83-.09h-6c0-9.51-.1-18.55.13-27.59,0-1,1.89-2.95,2.86-2.92,25.78.68,51.75-2.68,77.3,2,18.34,3.39,32.17,13.2,37.19,31.08,5.23,18.6,4,36.65-11.2,51.21-5.08,4.85-11.81,8.13-18.33,12.5.32.72.95,2.3,1.69,3.83q15.13,31.25,30.29,62.48c2.74,5.66,2.4,6.16-4.13,6.17-8.22,0-16.44-.16-24.65.08-3.76.12-5.67-1.17-7.21-4.41-9.46-19.89-19.26-39.62-28.63-59.54-1.75-3.7-3.88-4.95-7.93-4.66C464.43,252.92,460.08,252.68,455.1,252.68Z"/><path class="cls-1" d="M597.75,182v38.56h5.37c14.57,0,29.13.07,43.7,0v30.65c-14.48-.05-29,0-43.44,0h-5.83v38.06h49.27V321h-.43c-24.81,0-52.52-.07-77.34.08-4.3,0-5.87-1.13-5.86-5.4q.19-79.41,0-158.82c0-3.29.36-5.41,4.78-5.39,25.33.15,53.41.07,78.8.09V182Z"/><path class="cls-1" d="M21,158.71c25.72-19.24,65.11-13.06,81.47,12.79A52,52,0,0,1,110,195.18c.31,3.35-.53,4.95-4.27,4.85-8-.19-16.1-.15-24.14,0-3,.06-4.32-1.17-4.57-4C76,184,63.83,177.41,49.81,180.24c-12.16,2.45-19.1,14-15.84,25.95,2.17,8,7.87,12.34,15.69,13.8,5.74,1.07,11.71,1,17.43,2.14,20.62,4.21,35.88,15.32,41.5,36.25,3.14,11.66,3.45,24.21-1.3,35.49A43.48,43.48,0,0,1,84,317.35a113.38,113.38,0,0,1-23.44,6.88c-7.29,1.33-15.27,2.71-22.48.26l-.72-.27v-30.3c2-.31,15.4-.33,17-.6,6.3-1,11.86-1.4,17-5.78a18.26,18.26,0,0,0,6.45-14.64c-.34-10.65-10.29-20.06-22.27-20.61-12.32-.57-23.89-3.56-34.15-10.48C-7,222.67-7.14,179.72,21,158.71Z"/><path class="cls-1" d="M503.56,21.42c0-6.34-.18-11.87.14-17.38a4.58,4.58,0,0,1,2-3c1.22-.72,3-.36,4.38-.37,1.74,0,3.49,0,5.23,0,3.72,0,7.43-.07,11.15-.07,7.41,0,14.84.11,22.23.7.88.07,1.77.15,2.65.24,17,1.64,26.6,11.31,28.87,26.05C583,45.46,577,57.06,561.12,65a8.49,8.49,0,0,0-1.15.91l22.63,49.27c-8.05,0-15.28.15-22.5-.17-1-.05-2.2-2.29-2.87-3.72C551.7,99.48,545.94,87.73,541,75.66c-2.21-5.37-5.09-7.7-10.75-6.7a29.14,29.14,0,0,1-4.56,0c-.09,2-.23,3.74-.24,5.5,0,12.08-.1,24.16.05,36.23,0,3.45-1,4.86-4.61,4.66-4.51-.25-9.05-.12-13.58,0-2.39.05-3.76-.56-3.75-3.34.06-21.12,0-42.24,0-64.1h5.53c11.75,0,23.49.15,35.22-.11,9.82-.22,15.13-5.55,14.66-14-.39-7-5.6-11.82-14.15-12.11-11.56-.39-23.14-.19-34.71-.24C508.14,21.41,506.16,21.42,503.56,21.42Z"/><path class="cls-1" d="M89.57,47.91c12.9,0,25.11.06,37.31,0a37.72,37.72,0,0,0,8.94-1c5.88-1.51,9.06-5.78,9.25-11.67.17-5.48-2.72-10.32-8-12.1a35.32,35.32,0,0,0-10.34-1.59c-10.39-.2-20.79-.07-31.18-.07H89.61c0-6.5-.12-12.35.13-18.18A3.82,3.82,0,0,1,92.48.7c14.91.06,29.91-.61,44.7.82,17.17,1.67,27.09,11.33,29.1,26.41,2.18,16.32-2.57,30-19,37A8.59,8.59,0,0,0,146,66c7.33,16,14.74,32.17,22.6,49.32-8,0-14.79.22-21.56-.18-1.36-.08-3-2.31-3.78-3.9C137.51,99.11,131.69,87,126.48,74.7c-2-4.65-4.44-6.55-9.31-5.75a39.23,39.23,0,0,1-5.9,0c0,13,0,25.56,0,38.09,0,9.38,1.14,8.19-8.34,8.23-13.34.05-13.34,0-13.34-13.36Z"/><path class="cls-1" d="M234.9,115.32c-17.09,0-34,0-50.9,0-3.36,0-3.14-2.19-3.14-4.44q0-22.14,0-44.28c0-20.13.11-40.26-.09-60.38-.05-4.27.88-5.86,5.51-5.78,16.08.28,32.17.11,48.64.11V21.21h-31.7v26.1h46.12c0,6.51.2,12.35-.19,18.14-.07,1-2.71,2.49-4.18,2.52-12.07.2-24.15.11-36.22.11h-5.6v25.8H234.9Z"/><path class="cls-1" d="M405.34,21.64h21.48v5.51q0,22.91,0,45.79c0,9.86,4,16.21,12.12,19.48C447.82,96,459.46,94,465.28,88c3.78-3.92,4.5-8.81,4.49-14,0-22.64.1-45.28-.11-67.92,0-1.51,0-3.32,1.09-4.53C472.06.06,474.43.29,476.23.22c4-.16,8.22-.53,12.21.3a3.33,3.33,0,0,1,1.85,1c1.07,1.22,1,3.17,1,4.7-.2,22-.09,43.93-.09,65.9,0,30-20.34,47.32-50.21,42.69-19.26-3-31.83-13.83-35-30.43a53.88,53.88,0,0,1-.66-10C405.31,57,405.34,39.54,405.34,21.64Z"/><path class="cls-1" d="M614.12,68.08v25.8h32v21.45H602.67c-10.78,0-10.78,0-10.78-10.92,0-32.69.08-65.39-.1-98.08,0-4.66,1.34-6,6-5.88,14.41.3,28.83.11,43.25.11h5.14V21.27H614v26h32.82V68.08Z"/><path class="cls-1" d="M357.61,115.52V95.31a16.12,16.12,0,0,1,2.22-.85c8.26-1.8,12.48-6.56,12-13.59-.5-6.73-6.39-11.85-13.9-12.93-5.74-.83-11.7-1.7-17-3.93-13.86-5.87-20.24-17.84-18.71-33.3,1.37-13.81,12.12-25.69,26.28-29,20.85-4.92,40.21,6.64,43.75,26.17a64.34,64.34,0,0,1,.48,6.54c-6.53,0-12.53.16-18.51-.15-1-.06-2.32-2-2.73-3.33-2.28-7.32-8.44-10.77-17.1-9.32-6.95,1.16-11.34,6.72-11,14,.28,6.77,5.2,11.26,13,12.2,4.8.58,9.75.92,14.3,2.4,14.85,4.82,23.46,18.07,22.45,33.68-1,15.37-11,27.11-26.12,30.37C364.05,114.85,361.06,115.05,357.61,115.52Z"/><path class="cls-1" d="M161.07,207.67h33.49v4.79c0,34.19-.1,68.39.1,102.57,0,5-1.66,6.37-6.37,6.18-7.7-.31-15.42-.17-23.13,0-3.14.05-4.59-1-4.58-4.32q.1-53.81.1-107.6A9.51,9.51,0,0,1,161.07,207.67Z"/><path class="cls-1" d="M291.09,50.65c-5.86,16.7-11.31,32.26-16.77,47.81-1.55,4.42-3.22,8.81-4.59,13.29-.81,2.66-2.15,3.74-5,3.64-6-.2-12-.06-19.12-.06,15-38.85,29.79-76.88,44.52-114.91l2-.07,44.7,114.94c-7.72,0-14.37.19-21-.18-1.11-.06-2.52-2.37-3.08-3.9-6.52-18.1-12.9-36.26-19.32-54.4C292.79,55.12,292.13,53.45,291.09,50.65Z"/><path class="cls-1" d="M177.52,151.38c16.1,0,32.21.11,48.31-.07,3.89,0,5.43,1,5.25,5.12-.29,6.87-.2,13.76,0,20.63.09,3.35-.83,4.8-4.49,4.78q-49.06-.15-98.13,0c-3.15,0-4.59-.88-4.5-4.28.17-7.2.19-14.43,0-21.63-.1-3.63,1.4-4.6,4.78-4.58C145,151.45,161.25,151.38,177.52,151.38Z"/><path class="cls-1" d="M54.2,42.34c1.25,1.14.61,5,.67,6.36.12,2.92.13,5.84.11,8.76,0,6-.29,11.95-.29,17.92,0,11.5,0,23,.14,34.49.05,4.56-1.38,5.91-5.73,5.53a89.73,89.73,0,0,0-12.05,0c-3.13.15-4.06-1.18-4-4.13,0-12,0-24,0-36q0-9.21,0-18.44c0-4-1.94-12.93,3.13-14.49,2.11-.65,4.89-.31,7.07-.35,3.35-.06,6.71,0,10.06,0A1.22,1.22,0,0,1,54.2,42.34Z"/><path class="cls-1" d="M.74,19.21a1.83,1.83,0,0,1-.15-.64A111.16,111.16,0,0,1,.71,6.19C.76,4.82.44,3,1.23,1.73A3.44,3.44,0,0,1,4.31.54c20.63,0,49.81.06,70.44,0,2.61,0,3.64,1,3.59,3.54-.07,4.2.22,8.41-.15,12.57a3.8,3.8,0,0,1-2.54,3.15,9.19,9.19,0,0,1-2.72.28c-5.11,0-10.23,0-15.34,0q-13.59,0-27.18,0c-4.49,0-9.09,0-13.62-.05l-7,0H2.82C2.08,20,1.11,20,.74,19.21Z"/><path class="cls-2" d="M341.11,237.06a24.72,24.72,0,0,1-24.66,24.66,24.3,24.3,0,0,1-24.65-24.48c-.08-14.13,11-25.37,24.83-25.21C330,212.19,341.1,223.54,341.11,237.06Z"/></g></g></svg>